{
  "accessors": [
    {
      "bufferView": 1,
      "componentType": 5126,
      "count": 4,
      "max": [
        1.0,
        1.0,
        0.0
      ],
      "min": [
        -1.0,
        -1.0,
        0.0
      ],
      "type": "VEC3"
    },
    {
      "bufferView": 1,
      "byteOffset": 48,
      "componentType": 5126,
      "count": 4,
      "max": [
        0.0,
        0.0,
        1.0
      ],
      "min": [
        0.0,
        0.0,
        1.0
      ],
      "type": "VEC3"
    },
    {
      "bufferView": 0,
      "componentType": 5125,
      "count": 6,
      "type": "SCALAR"
    },
    {
      "bufferView": 1,
      "byteOffset": 96,
      "componentType": 5126,
      "count": 248,
      "max": [
        1.0,
        1.0,
        0.0
      ],
      "min": [
        -1.0,
        -1.0,
        0.0
      ],
      "type": "VEC3"
    },
    {
      "bufferView": 1,
      "byteOffset": 3072,
      "componentType": 5126,
      "count": 248,
      "max": [
        -0.0,
        0.0,
        1.0
      ],
      "min": [
        -0.0,
        0.0,
        1.0
      ],
      "type": "VEC3"
    },
    {
      "bufferView": 0,
      "byteOffset": 24,
      "componentType": 5125,
      "count": 744,
      "type": "SCALAR"
    },
    {
      "bufferView": 1,
      "byteOffset": 6048,
      "componentType": 5126,
      "count": 248,
      "max": [
        1.0,
        1.0,
        0.0
      ],
      "min": [
        -1.0,
        -1.0,
        0.0
      ],
      "type": "VEC3"
    },
    {
      "bufferView": 1,
      "byteOffset": 9024,
      "componentType": 5126,
      "count": 248,
      "max": [
        -0.0,
        0.0,
        1.0
      ],
      "min": [
        -0.0,
        0.0,
        1.0
      ],
      "type": "VEC3"
    },
    {
      "bufferView": 0,
      "byteOffset": 3000,
      "componentType": 5125,
      "count": 744,
      "type": "SCALAR"
    },
    {
      "bufferView": 1,
      "byteOffset": 12000,
      "componentType": 5126,
      "count": 408,
      "max": [
        28.326759338378906,
        2.960469961166382,
        0.0
      ],
      "min": [
        -6.989250183105469,
        -3.526870012283325,
        0.0
      ],
      "type": "VEC3"
    },
    {
      "bufferView": 1,
      "byteOffset": 16896,
      "componentType": 5126,
      "count": 408,
      "max": [
        0.0,
        0.0,
        1.0
      ],
      "min": [
        0.0,
        0.0,
        1.0
      ],
      "type": "VEC3"
    },
    {
      "bufferView": 0,
      "byteOffset": 5976,
      "componentType": 5125,
      "count": 1152,
      "type": "SCALAR"
    },
    {
      "bufferView": 1,
      "byteOffset": 21792,
      "componentType": 5126,
      "count": 2800,
      "max": [
        5.641980171203613,
        3.75711989402771,
        5.58627986907959
      ],
      "min": [
        -5.976109981536865,
        -3.2580299377441406,
        -6.031000137329102
      ],
      "type": "VEC3"
    },
    {
      "bufferView": 1,
      "byteOffset": 55392,
      "componentType": 5126,
      "count": 2800,
      "max": [
        0.9997453689575195,
        0.9538503289222717,
        0.9999861717224121
      ],
      "min": [
        -0.9999849796295166,
        -0.9538503289222717,
        -0.9998979568481445
      ],
      "type": "VEC3"
    },
    {
      "bufferView": 0,
      "byteOffset": 10584,
      "componentType": 5125,
      "count": 2808,
      "type": "SCALAR"
    },
    {
      "bufferView": 1,
      "byteOffset": 88992,
      "componentType": 5126,
      "count": 4704,
      "max": [
        158.2667999267578,
        269.9499816894531,
        0.0
      ],
      "min": [
        -328.3286437988281,
        -196.08876037597656,
        0.0
      ],
      "type": "VEC3"
    },
    {
      "bufferView": 1,
      "byteOffset": 145440,
      "componentType": 5126,
      "count": 4704,
      "max": [
        0.0,
        0.0,
        1.0
      ],
      "min": [
        0.0,
        0.0,
        1.0
      ],
      "type": "VEC3"
    },
    {
      "bufferView": 0,
      "byteOffset": 21816,
      "componentType": 5125,
      "count": 13230,
      "type": "SCALAR"
    },
    {
      "bufferView": 2,
      "componentType": 5126,
      "count": 100,
      "max": [
        4.166669845581055
      ],
      "min": [
        0.041669998317956924
      ],
      "type": "SCALAR"
    },
    {
      "bufferView": 4,
      "componentType": 5126,
      "count": 100,
      "max": [
        0.0,
        0.9998700022697449,
        0.0,
        1.0
      ],
      "min": [
        0.0,
        -0.9998800158500671,
        0.0,
        0.01566999964416027
      ],
      "type": "VEC4"
    },
    {
      "bufferView": 2,
      "byteOffset": 400,
      "componentType": 5126,
      "count": 100,
      "max": [
        4.166669845581055
      ],
      "min": [
        0.041669998317956924
      ],
      "type": "SCALAR"
    },
    {
      "bufferView": 3,
      "componentType": 5126,
      "count": 100,
      "max": [
        1.7306400537490845,
        -7.000000186963007e-05,
        -4.31928014755249
      ],
      "min": [
        -14.319519996643066,
        -7.000000186963007e-05,
        -4.31928014755249
      ],
      "type": "VEC3"
    },
    {
      "bufferView": 2,
      "byteOffset": 800,
      "componentType": 5126,
      "count": 1,
      "max": [
        0.041669998317956924
      ],
      "min": [
        0.041669998317956924
      ],
      "type": "SCALAR"
    },
    {
      "bufferView": 4,
      "byteOffset": 1600,
      "componentType": 5126,
      "count": 1,
      "max": [
        0.0,
        0.0,
        0.0,
        1.0
      ],
      "min": [
        0.0,
        0.0,
        0.0,
        1.0
      ],
      "type": "VEC4"
    }
  ],
  "animations": [
    {
      "channels": [
        {
          "sampler": 0,
          "target": {
            "node": 10,
            "path": "rotation"
          }
        },
        {
          "sampler": 1,
          "target": {
            "node": 8,
            "path": "translation"
          }
        },
        {
          "sampler": 2,
          "target": {
            "node": 8,
            "path": "rotation"
          }
        }
      ],
      "name": "Take 01",
      "samplers": [
        {
          "input": 18,
          "interpolation": "LINEAR",
          "output": 19
        },
        {
          "input": 20,
          "interpolation": "LINEAR",
          "output": 21
        },
        {
          "input": 22,
          "interpolation": "LINEAR",
          "output": 23
        }
      ]
    }
  ],
  "asset": {
    "extras": {
      "author": "yelaman.arts (https://sketchfab.com/elamanbolushan)",
      "license": "CC-BY-4.0 (http://creativecommons.org/licenses/by/4.0/)",
      "source": "https://sketchfab.com/3d-models/earth-in-blender-2d-2533e1e513b34e5cb2af1dd7a2442dc6",
      "title": "Earth in Blender 2D"
    },
    "generator": "Sketchfab-12.65.0",
    "version": "2.0"
  },
  "bufferViews": [
    {
      "buffer": 0,
      "byteLength": 74736,
      "name": "floatBufferViews",
      "target": 34963
    },
    {
      "buffer": 0,
      "byteLength": 201888,
      "byteOffset": 74736,
      "byteStride": 12,
      "name": "floatBufferViews",
      "target": 34962
    },
    {
      "buffer": 0,
      "byteLength": 804,
      "byteOffset": 276624,
      "name": "floatBufferViews"
    },
    {
      "buffer": 0,
      "byteLength": 1200,
      "byteOffset": 277428,
      "byteStride": 12,
      "name": "floatBufferViews"
    },
    {
      "buffer": 0,
      "byteLength": 1616,
      "byteOffset": 278628,
      "byteStride": 16,
      "name": "floatBufferViews"
    }
  ],
  "buffers": [
    {
      "byteLength": 280244,
      "uri": "scene.bin"
    }
  ],
  "extensionsUsed": [
    "KHR_materials_unlit"
  ],
  "materials": [
    {
      "doubleSided": true,
      "emissiveFactor": [
        1.0,
        1.0,
        1.0
      ],
      "extensions": {
        "KHR_materials_unlit": {}
      },
      "name": "star",
      "pbrMetallicRoughness": {
        "baseColorFactor": [
          0.8148468732833862,
          0.8962693810462952,
          0.9822508096694946,
          1.0
        ],
        "metallicFactor": 0.0
      }
    },
    {
      "doubleSided": true,
      "extensions": {
        "KHR_materials_unlit": {}
      },
      "name": "cloud",
      "pbrMetallicRoughness": {
        "metallicFactor": 0.0
      }
    },
    {
      "doubleSided": true,
      "extensions": {
        "KHR_materials_unlit": {}
      },
      "name": "86cc69",
      "pbrMetallicRoughness": {
        "baseColorFactor": [
          0.23839758336544037,
          0.6038274168968201,
          0.14126330614089966,
          1.0
        ],
        "metallicFactor": 0.0
      }
    },
    {
      "alphaMode": "BLEND",
      "doubleSided": true,
      "extensions": {
        "KHR_materials_unlit": {}
      },
      "name": "material",
      "pbrMetallicRoughness": {
        "baseColorFactor": [
          0.0,
          0.0,
          0.0,
          0.45560213414634143
        ],
        "metallicFactor": 0.0
      }
    },
    {
      "doubleSided": true,
      "extensions": {
        "KHR_materials_unlit": {}
      },
      "name": "061823",
      "pbrMetallicRoughness": {
        "baseColorFactor": [
          0.0018211614806205032,
          0.009134061634540554,
          0.016807377338409424,
          1.0
        ],
        "metallicFactor": 0.0
      }
    },
    {
      "doubleSided": true,
      "extensions": {
        "KHR_materials_unlit": {}
      },
      "name": "347fb8",
      "pbrMetallicRoughness": {
        "baseColorFactor": [
          0.03433981165289881,
          0.21223078668117534,
          0.47932019829750067,
          1.0
        ],
        "metallicFactor": 0.0
      }
    }
  ],
  "meshes": [
    {
      "name": "Plane_0",
      "primitives": [
        {
          "attributes": {
            "NORMAL": 1,
            "POSITION": 0
          },
          "indices": 2,
          "material": 5,
          "mode": 4
        }
      ]
    },
    {
      "name": "Plane.001_0",
      "primitives": [
        {
          "attributes": {
            "NORMAL": 4,
            "POSITION": 3
          },
          "indices": 5,
          "material": 4,
          "mode": 4
        }
      ]
    },
    {
      "name": "Plane.002_0",
      "primitives": [
        {
          "attributes": {
            "NORMAL": 7,
            "POSITION": 6
          },
          "indices": 8,
          "material": 3,
          "mode": 4
        }
      ]
    },
    {
      "name": "Circle.003_0",
      "primitives": [
        {
          "attributes": {
            "NORMAL": 10,
            "POSITION": 9
          },
          "indices": 11,
          "material": 2,
          "mode": 4
        }
      ]
    },
    {
      "name": "Circle.005_0",
      "primitives": [
        {
          "attributes": {
            "NORMAL": 13,
            "POSITION": 12
          },
          "indices": 14,
          "material": 1,
          "mode": 4
        }
      ]
    },
    {
      "name": "Circle_0",
      "primitives": [
        {
          "attributes": {
            "NORMAL": 16,
            "POSITION": 15
          },
          "indices": 17,
          "material": 0,
          "mode": 4
        }
      ]
    }
  ],
  "nodes": [
    {
      "children": [
        1
      ],
      "matrix": [
        51.821197509765625,
        0.0,
        0.0,
        0.0,
        0.0,
        1.1506617327797924e-14,
        -51.821197509765625,
        0.0,
        0.0,
        51.821197509765625,
        1.1506617327797924e-14,
        0.0,
        0.0,
        0.0,
        0.0,
        1.0
      ],
      "name": "Sketchfab_model"
    },
    {
      "children": [
        2,
        4,
        6,
        8,
        10,
        12
      ],
      "name": "Root"
    },
    {
      "children": [
        3
      ],
      "matrix": [
        9.09635,
        0.0,
        0.0,
        0.0,
        0.0,
        9.09635,
        0.0,
        0.0,
        0.0,
        0.0,
        9.09635,
        0.0,
        0.0,
        0.0,
        -4.65938,
        1.0
      ],
      "name": "Plane"
    },
    {
      "mesh": 0,
      "name": "Plane_0"
    },
    {
      "children": [
        5
      ],
      "matrix": [
        9.884730000000001,
        0.0,
        0.0,
        0.0,
        0.0,
        9.884730000000001,
        0.0,
        0.0,
        0.0,
        0.0,
        9.884730000000001,
        0.0,
        0.0,
        0.0,
        0.20329000000000003,
        1.0
      ],
      "name": "Plane.001"
    },
    {
      "mesh": 1,
      "name": "Plane.001_0"
    },
    {
      "children": [
        7
      ],
      "matrix": [
        9.884730000000001,
        0.0,
        0.0,
        0.0,
        0.0,
        9.884730000000001,
        0.0,
        0.0,
        0.0,
        0.0,
        9.884730000000001,
        0.0,
        -1.09525,
        0.0,
        0.06064000000000001,
        1.0
      ],
      "name": "Plane.002"
    },
    {
      "mesh": 2,
      "name": "Plane.002_0"
    },
    {
      "children": [
        9
      ],
      "name": "Circle.003",
      "scale": [
        0.6270400285720825,
        0.6270400285720825,
        0.6270400285720825
      ],
      "translation": [
        1.7306400537490845,
        -7.000000186963007e-05,
        -4.31928014755249
      ]
    },
    {
      "mesh": 3,
      "name": "Circle.003_0"
    },
    {
      "children": [
        11
      ],
      "name": "Circle.005",
      "scale": [
        0.8102999925613403,
        0.8102999925613403,
        0.8102999925613403
      ],
      "translation": [
        0.10474000126123428,
        0.02921999990940094,
        -4.822159767150879
      ]
    },
    {
      "mesh": 4,
      "name": "Circle.005_0"
    },
    {
      "children": [
        13
      ],
      "matrix": [
        0.04055000000000001,
        0.0,
        0.0,
        0.0,
        0.0,
        0.04055000000000001,
        0.0,
        0.0,
        0.0,
        0.0,
        0.04055000000000001,
        0.0,
        4.328569999999999,
        0.5526300000000001,
        0.47200000000000003,
        1.0
      ],
      "name": "Circle"
    },
    {
      "mesh": 5,
      "name": "Circle_0"
    }
  ],
  "scene": 0,
  "scenes": [
    {
      "name": "Sketchfab_Scene",
      "nodes": [
        0
      ]
    }
  ]
}
